<svg xmlns="http://www.w3.org/2000/svg" viewBox="0 0 502.51 303.18"><defs><style>.cls-1{fill:#fff;}</style></defs><g id="Camada_2" data-name="Camada 2"><g id="Camada_2-2" data-name="Camada 2"><path class="cls-1" d="M399.52,120.52a58.41,58.41,0,0,1-58.4,58.41H195.27a16.72,16.72,0,0,1,0-33.44h30.3a15.52,15.52,0,0,0,0-31H167.72a15.16,15.16,0,0,1-15.16-15.17,15.42,15.42,0,0,1,15.16-15.46h57.85a15.89,15.89,0,0,0,3.31-31.43,8.85,8.85,0,0,0-.87-.16,16.39,16.39,0,0,0-2.44-.19l-29.85,0a11.6,11.6,0,0,1-.45-3.25,17,17,0,0,1,33.16-5.3,50.27,50.27,0,1,1,98.18,20.48,58.47,58.47,0,0,1,72.91,56.59Z"/><path class="cls-1" d="M169,162.21a16.71,16.71,0,0,1-15.61,16.67,10,10,0,0,1-1.1.05h-27a16.72,16.72,0,0,1,0-33.44h27c.37,0,.74,0,1.1,0A16.72,16.72,0,0,1,169,162.21Z"/><path class="cls-1" d="M47.41,268c-.2,6.09-.89,7.85-15,7.85-5.42,0-13-.17-16-1.66-2.07-.94-4.18-3-4.18-11.55,0-12.16,1.29-14.32,17.42-14.32,16.58,0,17.29,2.2,17.42,7.63l.05,2.39H59.17L59,255.77c-.27-5.4-1.11-9.41-4.41-12.71-4-4.22-10.31-5.64-25-5.64-10.88,0-16.21.82-20.39,3.12C2.93,244,0,250.88,0,262.16c0,9.67,2.26,16.21,6.88,20,4.38,3.63,10.41,4.69,26.86,4.69,12,0,17.34-1.4,21.25-5.53,3-3.13,4.23-6.83,4.34-13.18l0-2.49H47.49Z"/><rect class="cls-1" x="60.62" y="218.87" width="11.73" height="67.38"/><path class="cls-1" d="M127.88,240.88c-4.24-2.65-9.95-3.46-24.44-3.46-10.38,0-15.46.74-19.4,2.81-6.59,3.45-9.65,10.33-9.65,21.65,0,11.64,2.58,17.87,8.88,21.5,4.37,2.6,10,3.44,23.27,3.44,11.68,0,16.76-.77,20.88-3.14,6.23-3.54,9-10.21,9-21.61C136.43,251.07,133.88,244.74,127.88,240.88ZM86.59,262.35c0-11.92,1.33-14,18-14,8.37,0,12.88.43,15.12,1.47,3,1.32,4.55,3.64,4.55,12.1,0,8.23-1.45,10.52-3,11.74-2.28,1.75-6,2.31-15.29,2.31-7.71,0-11.68-.35-14.18-1.27C88.34,273.45,86.59,271.21,86.59,262.35Z"/><path class="cls-1" d="M183.45,261.88c0,6.41-.65,8.37-1.84,9.74l-.08.1c-2.32,3-7.16,4.21-16.72,4.21-7.24,0-11-.67-12.9-2.29-1.6-1.43-2.36-3-2.36-11.29V238H137.82v26.43c0,9.78,1.32,14.4,5,17.67s9.78,4.74,21.2,4.74c9.25,0,15.16-.63,19.39-3.65v3.08h11.73V238H183.45Z"/><path class="cls-1" d="M246.22,218.87v21.31c-3.74-2.36-9-2.85-17-2.85-13.71,0-19.12.71-23.15,3-6.35,3.66-9.18,10.41-9.18,21.89,0,11,2.41,17.1,8.35,21,4.31,2.73,9.51,3.57,22.29,3.57,9.74,0,15.1-.49,18.83-2.9v2.33H258V218.87ZM209,262.26c0-8.34,1.59-10.64,3.3-11.89,2.2-1.59,6.46-2.16,16.28-2.16,7.26,0,12.61.42,15.11,2.49,2,1.67,2.77,4.88,2.77,11.84,0,7.33-1.32,9.79-3.29,11.23-2.21,1.6-6.61,2.16-16.84,2.16C210.43,275.93,209,273.69,209,262.26Z"/><path class="cls-1" d="M311.33,243.58c5.27,3.56,7.43,9.49,7.43,20.16,0,11.07-2.35,17.3-7.81,20.56-3.76,2.27-8.66,3-19.76,3-12.8,0-18.16-.8-22.11-3.27-5.55-3.36-7.72-9.19-7.72-20.45,0-10.88,2.64-17.4,8.38-20.56,3.57-2,8.47-2.67,18.35-2.67C302.2,240.32,307.56,241.11,311.33,243.58ZM268.7,264c0,9.49,1.79,13.54,6.87,15.42,2.82,1.08,7,1.48,15.06,1.48,10.16,0,14-.69,16.84-3s3.95-6.43,3.95-14.43c0-9-1.6-13.05-6-15.13-2.64-1.28-7.34-1.77-16.18-1.77C271.81,246.65,268.7,249.31,268.7,264Z"/><path class="cls-1" d="M325.34,240.91h6.87v5.93h.38c3.1-5.33,7.06-6.52,20.79-6.52,12.24,0,17.22.79,21.17,3.46,5.27,3.46,7.34,9.09,7.34,20.06,0,10.77-2.44,17-8.09,20.46-3.57,2.17-9.22,3-21.17,3-12.61,0-16.75-1.29-20-6h-.38v21.94h-6.87Zm11,8.4c-3.1,2.47-4.33,6.43-4.33,14,0,14.92,3.11,17.59,20.42,17.59,10.64,0,15.06-.69,17.79-2.77,3.1-2.37,4.32-6.42,4.32-14.23,0-14.53-3.1-17.29-19.57-17.29C343.6,246.65,339,247.34,336.35,249.31Z"/><path class="cls-1" d="M394.59,270.76l.1,1.29c-.1,8.3,1.41,8.89,21,8.89,12,0,15.43-.4,17.5-2.17,1.32-1.09,1.88-2.67,1.88-4.95,0-5.43-2.82-7.21-11.57-7.11-1.88,0-3.29,0-20-.2-11.48-.2-15.52-3.46-15.52-12.65,0-4.94,1.5-8.4,4.61-10.57s9.59-3,22.39-3c14.68,0,20.61,1.38,23.81,5.73,1.6,2.08,2,3.56,2,9h-7.34c0-3.36-.28-4.55-1.31-5.54-1.89-2.07-7.06-2.86-17.41-2.86-9.69,0-15.43.69-17.41,2.27-1.32,1-2,2.67-2,5,0,5,2.54,6.23,13,6,2.92-.1,15.52.2,20,.39,10,.4,14,4.35,14,13.35,0,5.63-1.6,9-5.17,11.06-3.11,1.78-9.41,2.48-21.83,2.48-14.87,0-20.8-.8-24.09-3.37-3-2.27-4.05-5.13-4.05-10.77v-2.37Z"/><path class="cls-1" d="M454.71,270.76l.1,1.29c-.1,8.3,1.41,8.89,21,8.89,12,0,15.43-.4,17.5-2.17,1.32-1.09,1.89-2.67,1.89-4.95,0-5.43-2.83-7.21-11.58-7.11-1.88,0-3.29,0-20-.2-11.48-.2-15.52-3.46-15.52-12.65,0-4.94,1.5-8.4,4.61-10.57s9.6-3,22.39-3c14.68,0,20.61,1.38,23.81,5.73,1.6,2.08,2,3.56,2,9h-7.33c0-3.36-.29-4.55-1.32-5.54-1.88-2.07-7.06-2.86-17.41-2.86-9.69,0-15.43.69-17.41,2.27q-2,1.49-2,5c0,5,2.54,6.23,13,6,2.92-.1,15.53.2,20,.39,10,.4,14,4.35,14,13.35,0,5.63-1.6,9-5.17,11.06-3.11,1.78-9.41,2.48-21.83,2.48-14.87,0-20.8-.8-24.09-3.37-3-2.27-4-5.13-4-10.77v-2.37Z"/></g></g></svg>